<?xml version="1.0" encoding="UTF-8"?>
<svg id="Layer_1" data-name="Layer 1" xmlns="http://www.w3.org/2000/svg" viewBox="0 0 1870.07 381.5">
  <defs>
    <style>
      .cls-1 {
        fill: #fff;
        stroke: #000;
        stroke-miterlimit: 10;
      }
    </style>
  </defs>
  <polygon class="cls-1" points="1144.38 233.59 1133.98 246.7 1115.45 270.06 1115.22 270.32 1111.98 274.4 1090.02 302.09 1086.1 307.04 1085.89 307.3 1056.74 344.02 1056.53 344.28 1027.41 381 968.72 381 997.84 344.28 998.06 344.02 1027.2 307.3 1027.41 307.04 1056.53 270.33 1056.53 270.32 1056.74 270.06 1075.3 246.7 1085.89 233.35 1085.67 233.08 1074.51 219.01 1056.53 196.36 1056.32 196.1 1027.2 159.39 1026.97 159.12 997.84 122.4 997.63 122.13 968.49 85.43 968.49 85.42 968.72 85.15 1026.58 85.15 1026.99 85.66 1055.94 122.13 1056.34 122.64 1061.83 129.56 1061.85 129.58 1085.29 159.12 1085.7 159.62 1088.85 163.6 1097.81 174.89 1110.84 191.3 1114.63 196.1 1115.05 196.6 1132.82 219.01 1143.98 233.08 1144.38 233.59"/>
  <g>
    <polygon class="cls-1" points="738.07 .8 704.77 42.78 301.68 42.78 302.57 43.92 335.21 85.06 538.33 85.06 537.44 86.2 504.8 127.33 368.77 127.33 369.67 128.48 402.33 169.61 471.24 169.61 470.34 170.76 437.68 211.89 436.78 213.03 404.15 254.17 403.23 255.31 402.33 254.17 369.69 213.03 368.77 211.89 336.13 170.76 335.24 169.61 302.57 128.48 301.68 127.33 269.04 86.2 268.12 85.06 235.48 43.92 234.58 42.78 201.92 1.65 201.02 .5 670.73 .5 670.97 .8 671.21 .5 737.85 .5 738.07 .8"/>
    <polygon class="cls-1" points="671.21 85.06 670.97 85.35 637.66 127.33 637.41 127.63 637.41 127.65 604.12 169.61 603.88 169.91 570.56 211.89 570.32 212.19 537.03 254.17 536.76 254.47 536.76 254.48 503.47 296.44 503.22 296.76 469.91 338.72 469.67 339.02 436.37 381 301.68 381 269.04 339.85 268.14 338.72 235.48 297.57 234.58 296.44 201.92 255.29 201.02 254.17 168.38 213.02 167.49 211.89 134.82 170.74 135.72 169.61 133.93 169.61 101.29 128.46 100.37 127.33 67.73 86.2 66.83 85.06 34.17 43.91 33.28 42.78 .64 1.65 1.53 .5 133.93 .5 134.82 1.65 167.49 42.78 168.38 43.91 201.02 85.06 201.94 86.18 234.58 127.33 235.48 128.46 268.14 169.61 269.04 170.74 301.68 211.89 302.57 213.02 335.24 254.17 336.13 255.29 368.79 296.44 436.37 296.44 469.67 254.48 469.91 254.17 503.22 212.21 503.47 211.89 536.78 169.93 536.78 169.91 537.03 169.61 570.32 127.63 570.56 127.33 603.88 85.37 604.12 85.06 671.21 85.06"/>
  </g>
  <polygon class="cls-1" points="1025.4 233.6 1010.89 251.88 658.72 251.88 644.3 270.06 643.87 270.58 629.37 288.86 614.94 307.04 614.54 307.55 600.03 325.84 585.59 344.02 936.93 344.02 937.36 344.54 922.85 362.82 908.42 381 497.55 381 511.99 362.82 526.5 344.53 526.9 344.02 541.32 325.84 555.83 307.56 556.25 307.04 570.68 288.86 585.19 270.57 585.59 270.06 600.01 251.88 614.52 233.6 614.94 233.08 629.37 214.89 643.87 196.6 644.28 196.1 658.72 177.91 673.23 159.62 673.63 159.12 688.05 140.93 702.56 122.64 702.99 122.13 717.41 103.95 731.92 85.66 732.32 85.15 907.58 85.15 908 85.68 922.51 103.95 936.93 122.13 761.67 122.13 761.27 122.66 746.76 140.93 732.34 159.12 731.92 159.64 717.41 177.91 702.99 196.1 702.58 196.62 688.07 214.89 1010.55 214.89 1024.97 233.08 1025.4 233.6"/>
  <polygon class="cls-1" points="1378.75 381 1320.04 381 1291.11 344.54 1291.54 344.02 1290.71 344.02 1279.42 329.8 1261.78 307.56 1262.18 307.04 1261.36 307.04 1257.44 302.09 1235.45 274.4 1232.43 270.58 1232.83 270.06 1232 270.06 1232.43 270.58 1229.4 274.4 1207.41 302.09 1203.49 307.04 1202.67 307.04 1203.07 307.55 1185.43 329.8 1174.14 344.02 1173.72 344.02 1173.93 344.3 1144.79 381 1086.1 381 1115.24 344.28 1115.45 344.02 1126.74 329.8 1144.57 307.32 1144.79 307.04 1148.7 302.09 1170.69 274.4 1173.74 270.57 1174.14 270.06 1192.67 246.7 1195.38 243.29 1203.07 233.6 1203.49 233.08 1202.67 233.08 1194.07 222.24 1191.51 219.01 1173.74 196.62 1173.74 196.6 1174.14 196.1 1173.31 196.1 1169.5 191.3 1147.52 163.6 1144.38 159.64 1144.79 159.12 1143.98 159.12 1136.53 149.72 1125.55 135.91 1115.03 122.64 1115.45 122.13 1114.63 122.13 1103.57 108.21 1100.54 104.38 1085.7 85.68 1086.1 85.15 1143.98 85.15 1144.38 85.66 1162.26 108.21 1173.31 122.13 1173.74 122.64 1173.74 122.66 1175.22 124.52 1184.26 135.91 1202.67 159.12 1203.07 159.62 1206.23 163.6 1228.21 191.3 1232.02 196.1 1232.43 196.62 1232.83 196.1 1236.64 191.3 1248.76 176.05 1258.65 163.6 1259.01 163.12 1261.78 159.64 1262.18 159.12 1275.42 142.43 1280.59 135.91 1285.67 129.5 1291.11 122.64 1291.54 122.13 1302.11 108.81 1302.59 108.21 1312.36 95.88 1320.47 85.66 1320.87 85.15 1371.72 85.15 1376.76 88.68 1361.28 108.21 1350.23 122.13 1349.4 122.13 1349.82 122.64 1349.82 122.66 1339.83 135.25 1339.3 135.91 1323.39 155.94 1320.87 159.12 1320.47 159.62 1317.31 163.6 1313.14 168.87 1296.73 189.56 1295.33 191.3 1291.54 196.1 1290.71 196.1 1291.11 196.6 1286.45 202.48 1273.34 219.01 1270.04 223.17 1262.18 233.08 1261.36 233.08 1261.78 233.59 1268.79 242.43 1268.81 242.45 1272.18 246.7 1290.71 270.06 1291.11 270.58 1294.14 274.4 1316.13 302.09 1320.04 307.04 1320.47 307.56 1326.31 314.93 1338.11 329.8 1349.4 344.02 1349.8 344.53 1362.3 360.28 1362.32 360.28 1378.75 381"/>
  <polygon class="cls-1" points="1868.48 381 1765.11 381 1743.67 365.96 1742.13 364.88 1739.18 362.82 1729.06 355.73 1720.31 349.6 1712.37 344.02 1705.95 339.52 1704.41 338.44 1692.06 329.8 1688.06 326.99 1688.04 326.98 1686.4 325.84 1676.3 318.75 1668.53 313.31 1668.23 313.09 1666.69 312.02 1659.59 307.04 1652.52 302.09 1651.67 301.49 1640.74 293.82 1633.67 288.86 1630.51 286.65 1628.97 285.57 1623.54 281.77 1616.75 277.01 1613.04 274.4 1606.83 270.06 1599.89 265.19 1592.79 260.23 1591.25 259.15 1580.87 251.88 1573.5 246.7 1570.77 244.79 1564.94 240.7 1555.79 234.28 1555.09 233.79 1554.08 233.08 1553.55 232.71 1548.08 228.89 1534 219.01 1528.13 214.89 1687.46 214.89 1694.13 206.48 1701.97 196.6 1702.37 196.1 1706.19 191.3 1710.57 185.79 1709.02 184.71 1699.32 177.91 1689.2 170.83 1678.89 163.6 1672.85 159.36 1672.49 159.12 1671.88 158.68 1671.3 158.28 1668.91 156.6 1668.53 156.34 1651.67 144.52 1646.54 140.93 1639.37 135.91 1636.42 133.84 1635.13 132.94 1633.58 131.84 1629.37 128.9 1624.58 125.54 1619.73 122.13 1409.57 122.13 1409.57 121.3 1414.48 115.12 1419.97 108.21 1423.36 103.95 1437.87 85.68 1437.87 85.66 1438.27 85.15 1496.13 85.15 1496.55 85.68 1496.96 85.15 1670.33 85.15 1672.07 86.37 1674.61 88.16 1697.14 103.95 1703.2 108.21 1709.79 112.81 1720.31 120.19 1723.09 122.13 1742.74 135.91 1747.49 139.24 1749.9 140.93 1772.12 156.5 1775.84 159.12 1782.24 163.6 1785.23 165.68 1775.53 177.91 1774.96 178.62 1772.12 182.2 1764.9 191.3 1761.08 196.1 1760.68 196.6 1758.54 199.3 1748.27 212.24 1746.17 214.89 1742.91 219.01 1731.86 232.92 1731.73 233.08 1731.33 233.6 1721.6 245.85 1720.93 246.7 1676.85 246.7 1684.24 251.88 1690.79 256.47 1705.17 266.54 1710.19 270.06 1716.37 274.4 1720.31 277.16 1737 288.86 1742.89 292.99 1755.89 302.09 1762.95 307.04 1772.12 313.46 1780.61 319.41 1789.76 325.84 1795.41 329.8 1815.7 344.02 1818.31 345.85 1823.01 349.13 1823.9 349.77 1842.52 362.82 1856.03 372.28 1868.48 381"/>
  <polygon class="cls-1" points="1513.16 236.61 1513.16 381 1461.37 381 1461.37 251.88 1334.98 251.88 1330.87 246.7 1320.47 233.6 1320.87 233.08 1324.17 228.92 1332.05 219.01 1334.45 215.99 1335.31 214.89 1482.17 214.89 1488.04 219.01 1500.94 228.05 1508.12 233.08 1513.16 236.61"/>
</svg>